<?xml version="1.0" encoding="UTF-8" standalone="no"?>
<svg
   height="24"
   viewBox="0 -960 960 960"
   width="24"
   fill="#cccccc"
   version="1.1"
   id="svg1"
   sodipodi:docname="rainy.svg"
   xmlns:inkscape="http://www.inkscape.org/namespaces/inkscape"
   xmlns:sodipodi="http://sodipodi.sourceforge.net/DTD/sodipodi-0.dtd"
   xmlns="http://www.w3.org/2000/svg"
   xmlns:svg="http://www.w3.org/2000/svg">
  <defs
     id="defs1" />
  <sodipodi:namedview
     id="namedview1"
     pagecolor="#505050"
     bordercolor="#eeeeee"
     borderopacity="1"
     inkscape:showpageshadow="0"
     inkscape:pageopacity="0"
     inkscape:pagecheckerboard="0"
     inkscape:deskcolor="#505050" />
  <g
     inkscape:groupmode="layer"
     id="layer7"
     inkscape:label="rain">
    <path
       d="m 555.39436,-89.685632 c -7.44,4.053336 -15.04333,4.693339 -22.81,1.920003 -7.76667,-2.766676 -13.67667,-7.866685 -17.73,-15.300011 l -63.85,-127.7 c -4.04667,-7.43333 -4.68667,-15.03333 -1.92,-22.8 2.76667,-7.77333 7.87,-13.68333 15.31,-17.73 7.43333,-4.05333 15.1,-4.63 23,-1.73 7.89333,2.89333 13.86667,8.05667 17.92,15.49 l 63.85,127.31 c 4.04667,7.44 4.62333,15.04333 1.73,22.81 -2.9,7.766665 -8.06667,13.676669 -15.5,17.730008 z m 240.38,0 c -7.43333,4.053336 -15.03333,4.693339 -22.8,1.920003 -7.77333,-2.766676 -13.68667,-7.866685 -17.74,-15.300011 l -63.84,-127.7 c -4.05333,-7.43333 -4.69333,-15.03333 -1.92,-22.8 2.76667,-7.77333 7.86667,-13.68333 15.3,-17.73 7.44,-4.05333 15.10667,-4.63 23,-1.73 7.9,2.89333 13.87333,8.05667 17.92,15.49 l 63.85,127.31 c 4.05333,7.44 4.63,15.04333 1.73,22.81 -2.89333,7.766665 -8.06,13.676669 -15.5,17.730008 z m -480.38,0 c -7.44,4.053336 -15.10667,4.693339 -23,1.920003 -7.9,-2.766676 -13.87333,-7.866685 -17.92,-15.300011 l -63.85,-127.7 c -4.05333,-7.43333 -4.63,-15.03333 -1.73,-22.8 2.89333,-7.77333 8.06,-13.68333 15.5,-17.73 7.43333,-4.05333 15.03333,-4.63 22.8,-1.73 7.77333,2.89333 13.68667,8.05667 17.74,15.49 l 63.84,127.31 c 4.05333,7.44 4.69333,15.04333 1.92,22.81 -2.76667,7.766665 -7.86667,13.676669 -15.3,17.730008 z"
       id="path1-5"
       style="display:inline;fill:#80e5ff" />
  </g>
  <g
     inkscape:groupmode="layer"
     id="layer8"
     inkscape:label="cloud">
    <path
       d="m 300,-330 c -58.1,0 -107.62667,-20.47333 -148.58,-61.42 C 110.47333,-432.37333 90,-481.9 90,-540 c 0,-53.54 17.88333,-100.07667 53.65,-139.61 35.77333,-39.54 80.27333,-62.59333 133.5,-69.16 20.56667,-37.74 48.71,-67.38 84.43,-88.92 35.71333,-21.54 75.18667,-32.31 118.42,-32.31 58.72,0 109.47667,19.10333 152.27,57.31 42.79333,38.20667 68.21667,85.84667 76.27,142.92 47.54,3.48667 86.33333,21.52667 116.38,54.12 30.05333,32.58667 45.08,71.13667 45.08,115.65 0,47.18 -16.54,87.30667 -49.62,120.38 C 787.30667,-346.54 747.18,-330 700,-330 Z"
       id="path1"
       sodipodi:nodetypes="scscccssccscss"
       style="display:inline;fill:#ffffff" />
  </g>
</svg>
