<?xml version="1.0" encoding="UTF-8" standalone="no"?>
<svg
   height="24"
   viewBox="0 -960 960 960"
   width="24"
   fill="#ffffff"
   version="1.1"
   id="svg1"
   sodipodi:docname="sunny_snowing.svg"
   xmlns:inkscape="http://www.inkscape.org/namespaces/inkscape"
   xmlns:sodipodi="http://sodipodi.sourceforge.net/DTD/sodipodi-0.dtd"
   xmlns="http://www.w3.org/2000/svg"
   xmlns:svg="http://www.w3.org/2000/svg">
  <defs
     id="defs1" />
  <sodipodi:namedview
     id="namedview1"
     pagecolor="#505050"
     bordercolor="#eeeeee"
     borderopacity="1"
     inkscape:showpageshadow="0"
     inkscape:pageopacity="0"
     inkscape:pagecheckerboard="0"
     inkscape:deskcolor="#505050" />
  <g
     inkscape:groupmode="layer"
     id="layer5"
     inkscape:label="Snow">
    <path
       d="m 239.93014,-216.16474 c -11.64667,0 -21.47,-4.02 -29.47,-12.06 -8,-8.04 -12,-17.88667 -12,-29.54 0,-11.64667 4.02333,-21.47 12.07,-29.47 8.04,-8 17.88667,-12 29.54,-12 11.64667,0 21.47,4.02 29.47,12.06 8,8.04667 12,17.89333 12,29.54 0,11.65333 -4.02333,21.48 -12.07,29.48 -8.04,7.99333 -17.88667,11.99 -29.54,11.99 z m 120,160.000036 c -11.64667,0 -21.47,-4.02 -29.47,-12.060005 -8,-8.040005 -12,-17.886681 -12,-29.540018 0,-11.646683 4.02333,-21.470013 12.07,-29.470013 8.04,-8 17.88667,-12 29.54,-12 11.64667,0 21.47,4.02 29.47,12.06 8,8.04667 12,17.89333 12,29.540013 0,11.653337 -4.02333,21.480013 -12.07,29.480018 -8.04,7.993335 -17.88667,11.990005 -29.54,11.990005 z m 120,-160.000036 c -11.6467,0 -21.47,-4.02 -29.47,-12.06 -8,-8.04 -12,-17.88667 -12,-29.54 0,-11.64667 4.0233,-21.47 12.07,-29.47 8.04,-8 17.8867,-12 29.54,-12 11.6467,0 21.47,4.02 29.47,12.06 8,8.04667 12,17.89333 12,29.54 0,11.65333 -4.0233,21.48 -12.07,29.48 -8.04,7.99333 -17.8867,11.99 -29.54,11.99 z m 120,160.000036 c -11.6467,0 -21.47,-4.02 -29.47,-12.060005 -8,-8.040005 -12,-17.886681 -12,-29.540018 0,-11.646683 4.0233,-21.470013 12.07,-29.470013 8.04,-8 17.8867,-12 29.54,-12 11.6467,0 21.47,4.02 29.47,12.06 8,8.04667 12,17.89333 12,29.540013 0,11.653337 -4.0233,21.480013 -12.07,29.480018 -8.04,7.993335 -17.8867,11.990005 -29.54,11.990005 z m 120,-160.000036 c -11.6467,0 -21.47,-4.02 -29.47,-12.06 -8,-8.04 -12,-17.88667 -12,-29.54 0,-11.64667 4.0233,-21.47 12.07,-29.47 8.04,-8 17.8867,-12 29.54,-12 11.6467,0 21.47,4.02 29.47,12.06 8,8.04667 12,17.89333 12,29.54 0,11.65333 -4.0233,21.48 -12.07,29.48 -8.04,7.99333 -17.8867,11.99 -29.54,11.99 z"
       id="path1-2"
       style="display:inline"
       sodipodi:insensitive="true" />
  </g>
  <g
     inkscape:groupmode="layer"
     id="layer6"
     inkscape:label="Sun">
    <path
       d="m 64.62,-420 v -60 h 140 v 60 z M 264,-623.85 164.23,-723 207,-765.15 305.77,-666 Z M 300,-420 v -30 c 0,-49.94667 17.51333,-92.43333 52.54,-127.46 35.02667,-35.02667 77.51333,-52.54 127.46,-52.54 49.94667,0 92.43333,17.51333 127.46,52.54 35.02667,35.02667 52.54,77.51333 52.54,127.46 v 30 z m 150,-305.38 v -140 h 60 v 140 z M 696,-623.85 653.23,-666 753,-765.15 794.77,-723 Z M 755.38,-420 v -60 h 140 v 60 z"
       id="path1"
       sodipodi:nodetypes="cccccccccccsssssccccccccccccccccc"
       style="fill:#ff9800;fill-opacity:1" />
  </g>
</svg>
